<svg width="145" height="145" viewBox="0 0 145 145" fill="none" xmlns="http://www.w3.org/2000/svg">
<path id="Vector" d="M123.07 21.7387C112.998 11.6654 100.166 4.80487 86.1945 2.02486C72.2235 -0.755137 57.742 0.670357 44.5812 6.12104C31.4204 11.5717 20.1715 20.803 12.2572 32.6468C4.34293 44.4909 0.118652 58.4158 0.118652 72.6608C0.118652 86.9057 4.34293 100.831 12.2572 112.675C20.1715 124.519 31.4204 133.75 44.5812 139.201C57.742 144.651 72.2235 146.077 86.1945 143.297C100.166 140.517 112.998 133.656 123.07 123.583C136.574 110.077 144.16 91.7596 144.16 72.6608C144.16 53.5619 136.574 35.245 123.07 21.7387ZM20.4409 52.1104C19.3952 49.6869 19.4755 46.9185 20.7245 44.5932C24.24 38.0483 28.958 32.2094 34.6434 27.389C41.3781 21.6788 49.3009 17.5412 57.8353 15.2775C66.37 13.0137 75.3019 12.6806 83.9814 14.3024C91.2048 15.652 89.0487 26.1319 82.1834 28.7521C71.2341 32.9311 60.117 40.09 50.2639 49.9251C46.9827 53.2009 43.9446 56.7026 41.1704 60.4019C36.9267 66.0609 28.314 66.8898 24.782 60.7614C23.171 57.9663 21.7213 55.078 20.4409 52.1104ZM58.6116 131.8C58.6116 131.816 58.596 131.828 58.5801 131.824C44.9237 128.157 33.0201 119.745 25.0041 108.095C23.9548 106.57 22.9811 105.003 22.0845 103.399C17.1221 94.5215 30.8945 89.0244 39.5236 94.4072C47.0898 99.1269 55.9114 102.987 65.6501 105.578C70.0782 106.779 74.5808 107.657 79.1227 108.209C86.147 109.063 91.1861 116.103 87.6565 122.236C86.0682 124.995 84.3235 127.665 82.4297 130.232C80.8556 132.365 78.4095 133.693 75.7595 133.774C69.9944 133.95 64.227 133.279 58.6432 131.775C58.6273 131.771 58.6116 131.783 58.6116 131.8ZM103.428 63.3799C102.248 58.889 100.749 54.4946 98.9454 50.2293C96.1999 43.7357 99.785 35.9004 106.835 35.8895C110.049 35.8845 113.263 36.0637 116.461 36.4273C119.088 36.7259 121.453 38.1758 122.847 40.4226C125.892 45.3339 128.198 50.6756 129.683 56.276C133.352 69.9476 132.025 84.4794 125.94 97.2602C125.144 98.9336 124.272 100.563 123.33 102.143C118.124 110.88 106.424 101.684 106.767 91.5191C107.068 82.6164 106.014 73.0645 103.428 63.3799Z" fill="#4D7DC8"/>
</svg>
