<svg width="30" height="30" viewBox="0 0 30 30" fill="none" xmlns="http://www.w3.org/2000/svg">
<g id="clarity:building-line" clip-path="url(#clip0_214_5326)">
<path id="Vector" d="M25.8332 6.66663H19.1665V8.33329H25.8332V25.8333H19.1665V27.5H27.4998V8.33329C27.4998 7.89127 27.3242 7.46734 27.0117 7.15478C26.6991 6.84222 26.2752 6.66663 25.8332 6.66663Z" fill="#FFFAFA"/>
<path id="Vector_2" d="M16.5668 2.5H5.10016C4.63161 2.5 4.18225 2.68613 3.85094 3.01744C3.51963 3.34876 3.3335 3.79812 3.3335 4.26667V27.5H18.3335V4.26667C18.3335 3.79812 18.1474 3.34876 17.8161 3.01744C17.4847 2.68613 17.0354 2.5 16.5668 2.5ZM16.6668 25.8333H14.1668V23.3333H7.50016V25.8333H5.00016V4.26667C5.00016 4.25353 5.00275 4.24053 5.00777 4.2284C5.0128 4.21627 5.02017 4.20524 5.02945 4.19596C5.03874 4.18667 5.04976 4.1793 5.06189 4.17428C5.07403 4.16925 5.08703 4.16667 5.10016 4.16667H16.5668C16.58 4.16667 16.593 4.16925 16.6051 4.17428C16.6172 4.1793 16.6283 4.18667 16.6375 4.19596C16.6468 4.20524 16.6542 4.21627 16.6592 4.2284C16.6642 4.24053 16.6668 4.25353 16.6668 4.26667V25.8333Z" fill="#FFFAFA"/>
<path id="Vector_3" d="M6.6665 6.66663H8.33317V8.33329H6.6665V6.66663Z" fill="#FFFAFA"/>
<path id="Vector_4" d="M10 6.66663H11.6667V8.33329H10V6.66663Z" fill="#FFFAFA"/>
<path id="Vector_5" d="M13.3335 6.66663H15.0002V8.33329H13.3335V6.66663Z" fill="#FFFAFA"/>
<path id="Vector_6" d="M6.6665 10.8334H8.33317V12.5H6.6665V10.8334Z" fill="#FFFAFA"/>
<path id="Vector_7" d="M10 10.8334H11.6667V12.5H10V10.8334Z" fill="#FFFAFA"/>
<path id="Vector_8" d="M13.3335 10.8334H15.0002V12.5H13.3335V10.8334Z" fill="#FFFAFA"/>
<path id="Vector_9" d="M6.6665 15H8.33317V16.6667H6.6665V15Z" fill="#FFFAFA"/>
<path id="Vector_10" d="M10 15H11.6667V16.6667H10V15Z" fill="#FFFAFA"/>
<path id="Vector_11" d="M13.3335 15H15.0002V16.6667H13.3335V15Z" fill="#FFFAFA"/>
<path id="Vector_12" d="M6.6665 19.1666H8.33317V20.8333H6.6665V19.1666Z" fill="#FFFAFA"/>
<path id="Vector_13" d="M10 19.1666H11.6667V20.8333H10V19.1666Z" fill="#FFFAFA"/>
<path id="Vector_14" d="M13.3335 19.1666H15.0002V20.8333H13.3335V19.1666Z" fill="#FFFAFA"/>
<path id="Vector_15" d="M19.1665 10.8334H20.8332V12.5H19.1665V10.8334Z" fill="#FFFAFA"/>
<path id="Vector_16" d="M22.5 10.8334H24.1667V12.5H22.5V10.8334Z" fill="#FFFAFA"/>
<path id="Vector_17" d="M19.1665 15H20.8332V16.6667H19.1665V15Z" fill="#FFFAFA"/>
<path id="Vector_18" d="M22.5 15H24.1667V16.6667H22.5V15Z" fill="#FFFAFA"/>
<path id="Vector_19" d="M19.1665 19.1666H20.8332V20.8333H19.1665V19.1666Z" fill="#FFFAFA"/>
<path id="Vector_20" d="M22.5 19.1666H24.1667V20.8333H22.5V19.1666Z" fill="#FFFAFA"/>
</g>
<defs>
<clipPath id="clip0_214_5326">
<rect width="30" height="30" fill="white"/>
</clipPath>
</defs>
</svg>
