<svg width="40" height="40" viewBox="0 0 40 40" fill="none" xmlns="http://www.w3.org/2000/svg">
<g id="akar-icons:instagram-fill">
<path id="Vector" fill-rule="evenodd" clip-rule="evenodd" d="M12.4415 1.77663C14.3965 1.68663 15.0198 1.66663 19.9998 1.66663C24.9798 1.66663 25.6032 1.68829 27.5565 1.77663C29.5098 1.86496 30.8432 2.17663 32.0098 2.62829C33.2315 3.08996 34.3398 3.81163 35.2565 4.74496C36.1898 5.65996 36.9098 6.76663 37.3698 7.98996C37.8232 9.15663 38.1332 10.49 38.2232 12.44C38.3132 14.3983 38.3332 15.0216 38.3332 20C38.3332 24.98 38.3115 25.6033 38.2232 27.5583C38.1348 29.5083 37.8232 30.8416 37.3698 32.0083C36.9098 33.2318 36.1886 34.3403 35.2565 35.2566C34.3398 36.19 33.2315 36.91 32.0098 37.37C30.8432 37.8233 29.5098 38.1333 27.5598 38.2233C25.6032 38.3133 24.9798 38.3333 19.9998 38.3333C15.0198 38.3333 14.3965 38.3116 12.4415 38.2233C10.4915 38.135 9.15817 37.8233 7.9915 37.37C6.76804 36.9099 5.65954 36.1887 4.74317 35.2566C3.81047 34.3411 3.08869 33.2331 2.62817 32.01C2.1765 30.8433 1.8665 29.51 1.7765 27.56C1.6865 25.6016 1.6665 24.9783 1.6665 20C1.6665 15.02 1.68817 14.3966 1.7765 12.4433C1.86484 10.49 2.1765 9.15663 2.62817 7.98996C3.08938 6.76676 3.8117 5.65881 4.74484 4.74329C5.6599 3.81079 6.76729 3.08903 7.98984 2.62829C9.1565 2.17663 10.4898 1.86663 12.4398 1.77663H12.4415ZM27.4082 5.07663C25.4748 4.98829 24.8948 4.96996 19.9998 4.96996C15.1048 4.96996 14.5248 4.98829 12.5915 5.07663C10.8032 5.15829 9.83317 5.45663 9.1865 5.70829C8.3315 6.04163 7.71984 6.43663 7.07817 7.07829C6.46991 7.67004 6.0018 8.39043 5.70817 9.18663C5.4565 9.83329 5.15817 10.8033 5.0765 12.5916C4.98817 14.525 4.96984 15.105 4.96984 20C4.96984 24.895 4.98817 25.475 5.0765 27.4083C5.15817 29.1966 5.4565 30.1666 5.70817 30.8133C6.0015 31.6083 6.46984 32.33 7.07817 32.9216C7.66984 33.53 8.3915 33.9983 9.1865 34.2916C9.83317 34.5433 10.8032 34.8416 12.5915 34.9233C14.5248 35.0116 15.1032 35.03 19.9998 35.03C24.8965 35.03 25.4748 35.0116 27.4082 34.9233C29.1965 34.8416 30.1665 34.5433 30.8132 34.2916C31.6682 33.9583 32.2798 33.5633 32.9215 32.9216C33.5298 32.33 33.9982 31.6083 34.2915 30.8133C34.5432 30.1666 34.8415 29.1966 34.9232 27.4083C35.0115 25.475 35.0298 24.895 35.0298 20C35.0298 15.105 35.0115 14.525 34.9232 12.5916C34.8415 10.8033 34.5432 9.83329 34.2915 9.18663C33.9582 8.33163 33.5632 7.71996 32.9215 7.07829C32.3297 6.47008 31.6093 6.00198 30.8132 5.70829C30.1665 5.45663 29.1965 5.15829 27.4082 5.07663ZM17.6582 25.6516C18.9659 26.196 20.4221 26.2695 21.778 25.8595C23.134 25.4495 24.3055 24.5815 25.0925 23.4037C25.8795 22.2259 26.2333 20.8114 26.0932 19.4018C25.9532 17.9922 25.3282 16.6749 24.3248 15.675C23.6852 15.0358 22.9119 14.5463 22.0604 14.2419C21.2089 13.9374 20.3006 13.8256 19.4007 13.9143C18.5008 14.0031 17.6318 14.2903 16.8562 14.7552C16.0806 15.2201 15.4177 15.8512 14.9153 16.603C14.4129 17.3549 14.0835 18.2088 13.9507 19.1032C13.8179 19.9977 13.8851 20.9104 14.1474 21.7758C14.4097 22.6412 14.8606 23.4376 15.4677 24.1078C16.0748 24.778 16.8229 25.3053 17.6582 25.6516ZM13.3365 13.3366C14.2115 12.4616 15.2504 11.7675 16.3937 11.2939C17.537 10.8203 18.7623 10.5766 19.9998 10.5766C21.2373 10.5766 22.4627 10.8203 23.606 11.2939C24.7493 11.7675 25.7881 12.4616 26.6632 13.3366C27.5382 14.2117 28.2323 15.2505 28.7059 16.3938C29.1795 17.5371 29.4232 18.7625 29.4232 20C29.4232 21.2375 29.1795 22.4628 28.7059 23.6061C28.2323 24.7494 27.5382 25.7882 26.6632 26.6633C24.8959 28.4305 22.4991 29.4233 19.9998 29.4233C17.5006 29.4233 15.1037 28.4305 13.3365 26.6633C11.5693 24.8961 10.5765 22.4992 10.5765 20C10.5765 17.5007 11.5693 15.1039 13.3365 13.3366ZM31.5132 11.98C31.73 11.7754 31.9036 11.5294 32.0237 11.2566C32.1437 10.9837 32.2079 10.6896 32.2122 10.3915C32.2165 10.0934 32.161 9.79754 32.049 9.52131C31.9369 9.24508 31.7706 8.99414 31.5598 8.78336C31.349 8.57257 31.098 8.40622 30.8218 8.29415C30.5456 8.18209 30.2497 8.12659 29.9516 8.13093C29.6536 8.13528 29.3594 8.19938 29.0865 8.31945C28.8137 8.43952 28.5677 8.61312 28.3632 8.82996C27.9654 9.25167 27.7476 9.81183 27.756 10.3915C27.7645 10.9712 27.9985 11.5248 28.4084 11.9347C28.8184 12.3446 29.3719 12.5787 29.9516 12.5871C30.5313 12.5956 31.0915 12.3778 31.5132 11.98Z" fill="white"/>
</g>
</svg>
