<svg width="34" height="34" viewBox="0 0 34 34" fill="none" xmlns="http://www.w3.org/2000/svg">
<path id="Vector" d="M14.8313 8.36113L9.75681 2.50398C9.17181 1.82902 8.09932 1.83202 7.41982 2.51298L3.24684 6.69323C2.00485 7.93665 1.64935 9.78304 2.36785 11.2635C6.66025 20.1504 13.8279 27.3276 22.7092 31.6322C24.1882 32.3507 26.0332 31.9952 27.2752 30.7518L31.4872 26.5325C32.1697 25.8501 32.1712 24.7716 31.4902 24.1867L25.6102 19.1395C24.9952 18.6115 24.0397 18.6805 23.4232 19.2985L21.3772 21.3473C21.2725 21.4571 21.1346 21.5295 20.9848 21.5533C20.8349 21.5772 20.6814 21.5512 20.5477 21.4793C17.2034 19.5536 14.4293 16.776 12.5078 13.4293C12.4358 13.2955 12.4098 13.1417 12.4336 12.9916C12.4575 12.8415 12.5299 12.7034 12.6398 12.5984L14.6798 10.557C15.2978 9.93603 15.3653 8.97609 14.8313 8.35963V8.36113Z" stroke="#FFFAFA" stroke-width="3" stroke-linecap="round" stroke-linejoin="round"/>
</svg>
