<svg width="25" height="26" viewBox="0 0 25 26" fill="none" xmlns="http://www.w3.org/2000/svg">
<g id="ant-design:star-filled">
<path id="Vector" d="M22.1704 9.06693L15.9716 8.16605L13.2006 2.54837C13.125 2.39456 13.0005 2.27005 12.8466 2.19437C12.4609 2.00394 11.9921 2.16263 11.7993 2.54837L9.02828 8.16605L2.82955 9.06693C2.65865 9.09134 2.5024 9.17191 2.38277 9.29398C2.23815 9.44263 2.15845 9.64261 2.1612 9.84999C2.16395 10.0574 2.24891 10.2552 2.39742 10.3999L6.88229 14.7725L5.82272 20.9468C5.79787 21.0904 5.81376 21.2382 5.86859 21.3732C5.92343 21.5083 6.015 21.6253 6.13294 21.7109C6.25088 21.7966 6.39046 21.8475 6.53585 21.8578C6.68124 21.8682 6.82663 21.8376 6.95553 21.7696L12.5 18.8545L18.0444 21.7696C18.1958 21.8501 18.3715 21.877 18.54 21.8477C18.9648 21.7744 19.2505 21.3716 19.1772 20.9468L18.1176 14.7725L22.6025 10.3999C22.7246 10.2803 22.8051 10.1241 22.8296 9.95316C22.8955 9.52591 22.5976 9.1304 22.1704 9.06693Z" fill="#FFC700"/>
</g>
</svg>
