<svg width="65" height="65" viewBox="0 0 65 65" fill="none" xmlns="http://www.w3.org/2000/svg">
<g id="Black and White Collection 7">
<path id="Vector" d="M64.0545 11C64.0545 5.47715 59.5774 1 54.0545 1H11C5.47715 1 1 5.47715 1 11V54.0545C1 59.5774 5.47715 64.0545 11 64.0545H54.0545C59.5774 64.0545 64.0545 59.5774 64.0545 54.0545V11Z" fill="#20263C"/>
<g id="Group" opacity="0.1">
<path id="Vector_2" opacity="0.1" d="M64.0495 62.5616V62.5616C64.0495 63.3834 63.3833 64.0496 62.5615 64.0496V64.0496" stroke="#20263C" stroke-miterlimit="10"/>
<path id="Vector_3" opacity="0.1" d="M59.6999 64.0496H3.9165" stroke="#20263C" stroke-miterlimit="10" stroke-dasharray="5.77 5.77"/>
<path id="Vector_4" opacity="0.1" d="M2.48795 64.0496V64.0496C1.66618 64.0496 1 63.3834 1 62.5616V62.5616" stroke="#20263C" stroke-miterlimit="10"/>
<path id="Vector_5" opacity="0.1" d="M1 59.7047V3.91632" stroke="#20263C" stroke-miterlimit="10" stroke-dasharray="5.77 5.77"/>
<path id="Vector_6" opacity="0.1" d="M1 2.48795V2.48795C1 1.66618 1.66618 1 2.48795 1V1" stroke="#20263C" stroke-miterlimit="10"/>
<path id="Vector_7" opacity="0.1" d="M5.34473 1H61.1331" stroke="#20263C" stroke-miterlimit="10" stroke-dasharray="5.77 5.77"/>
<path id="Vector_8" opacity="0.1" d="M62.5615 1V1C63.3833 1 64.0495 1.66618 64.0495 2.48795V2.48795" stroke="#20263C" stroke-miterlimit="10"/>
<path id="Vector_9" opacity="0.1" d="M64.0498 5.34982V61.1332" stroke="#20263C" stroke-miterlimit="10" stroke-dasharray="5.77 5.77"/>
</g>
<path id="Vector_10" d="M41.5072 22.3535C39.5651 20.4111 37.0906 19.0882 34.3966 18.5521C31.7026 18.0161 28.9102 18.2909 26.3724 19.342C23.8347 20.393 21.6656 22.1731 20.1395 24.4569C18.6134 26.7407 17.7988 29.4258 17.7988 32.1727C17.7988 34.9195 18.6134 37.6046 20.1395 39.8884C21.6656 42.1723 23.8347 43.9523 26.3724 45.0033C28.9102 46.0544 31.7026 46.3293 34.3966 45.7932C37.0906 45.2571 39.5651 43.9342 41.5072 41.9918C44.1112 39.3875 45.574 35.8554 45.574 32.1727C45.574 28.4899 44.1112 24.9579 41.5072 22.3535ZM21.8842 28.5832C21.5613 27.8842 21.5831 27.0699 21.9713 26.405C22.6244 25.2866 23.4638 24.2843 24.4561 23.443C25.7548 22.342 27.2825 21.5441 28.9282 21.1076C30.5739 20.6711 32.2962 20.6068 33.9699 20.9196C35.3627 21.1798 34.947 23.2006 33.6232 23.7059C31.5118 24.5117 29.3681 25.8921 27.4682 27.7886C27.1807 28.0756 26.903 28.3716 26.6352 28.676C25.2727 30.2255 22.7492 30.4564 21.8842 28.5832ZM29.0779 43.5762C29.0779 43.5794 29.0748 43.5817 29.0718 43.5809C26.4385 42.8738 24.1431 41.2517 22.5974 39.0054C21.3172 37.1448 24.3323 35.829 26.3198 36.9016C27.5576 37.5696 28.9403 38.1224 30.4351 38.5199C30.8247 38.6256 31.2172 38.7183 31.6122 38.798C33.6254 39.2044 35.0841 41.2639 33.9061 42.9463C33.8669 43.0023 33.8273 43.0581 33.7874 43.1136C33.4148 43.6318 32.8243 43.9529 32.1862 43.9612C31.1407 43.9749 30.0967 43.8442 29.084 43.5716C29.0809 43.5708 29.0779 43.5731 29.0779 43.5762ZM37.7198 30.383C37.6154 29.9863 37.4982 29.5934 37.3684 29.205C36.7163 27.2544 37.7766 24.9642 39.8254 25.1448C40.5937 25.2125 41.2905 25.6373 41.673 26.307C42.1577 27.1557 42.531 28.0653 42.7824 29.0132C43.4898 31.6495 43.2339 34.4516 42.0607 36.9161C41.0897 38.9557 38.4305 36.9988 38.3661 34.7409C38.3261 33.3379 38.1164 31.8686 37.7198 30.383Z" fill="#4D7DC8"/>
</g>
</svg>
