<svg width="40" height="40" viewBox="0 0 40 40" fill="none" xmlns="http://www.w3.org/2000/svg">
<g id="arcticons:twitter">
<path id="Vector" d="M32.7 13.7917V14.625C32.7 23.0167 26.3333 32.6333 14.6833 32.6333C11.2441 32.6408 7.87794 31.6413 5 29.7583C5.49981 29.8262 6.00398 29.8568 6.50833 29.85C9.35917 29.8578 12.1298 28.9069 14.375 27.15C13.0506 27.1305 11.766 26.694 10.7038 25.9026C9.64163 25.1112 8.85591 24.0052 8.45833 22.7417C8.85284 22.8253 9.25506 22.8672 9.65833 22.8667C10.2215 22.8668 10.7821 22.7911 11.325 22.6417C9.89048 22.3557 8.59993 21.5801 7.67416 20.4476C6.7484 19.3151 6.24496 17.8961 6.25 16.4333V16.35C7.12767 16.8403 8.11164 17.1091 9.11667 17.1333C7.77883 16.253 6.82765 14.895 6.45747 13.3368C6.0873 11.7787 6.32607 10.138 7.125 8.74999C8.71688 10.7079 10.703 12.3089 12.9542 13.4488C15.2054 14.5888 17.6713 15.2422 20.1917 15.3667C20.0669 14.8937 20.008 14.4057 20.0167 13.9167C19.9697 12.6241 20.3223 11.3484 21.0264 10.2635C21.7305 9.17846 22.7519 8.33683 23.9515 7.85317C25.1511 7.36951 26.4706 7.26731 27.7304 7.5605C28.9901 7.85369 30.1289 8.52801 30.9917 9.49166C32.4098 9.20546 33.7702 8.6844 35.0167 7.94999C34.544 9.44279 33.5384 10.7094 32.1917 11.5083C33.4497 11.335 34.6762 10.9813 35.8333 10.4583C34.9947 11.7464 33.9337 12.875 32.7 13.7917V13.7917Z" stroke="white" stroke-width="2" stroke-linecap="round" stroke-linejoin="round"/>
</g>
</svg>
